<?xml version="1.0" encoding="utf-8"?>
<!DOCTYPE svg PUBLIC "-//W3C//DTD SVG 1.1//EN" "http://www.w3.org/Graphics/SVG/1.1/DTD/svg11.dtd">
<svg version="1.1" xmlns="http://www.w3.org/2000/svg" width="2048px" height="2048px" viewBox="0 0 2048 2048" preserveAspectRatio="xMidYMid meet">
 <g fill="#000000">
  <path d="M181 1746.20 c-8.80 -5.40 -14.80 -12.60 -17 -20.40 -2.20 -7.40 -2.80 -103.40 -0.80 -113.80 1 -5 7.40 -11.80 27.80 -30.60 l26.40 -24.20 1.40 -30.20 c0.80 -16.40 2.80 -53.80 4.20 -83 1.60 -29.20 5.60 -103.40 9 -165 12 -223.40 16 -294.60 18 -328 2 -33.40 6.80 -122.60 9.20 -174 l1.40 -26 -12 -13 c-39.20 -42.60 -79.60 -90.20 -82.80 -97 -3.60 -7.60 -3.80 -16.60 -3.80 -163.20 l0 -155.20 4.60 -8.60 c3.20 -6 7.40 -10.20 13.40 -13.40 8.60 -4.60 9.20 -4.60 85.40 -4.60 72.40 0 77.20 0.20 84.40 4 4.40 2.20 9.60 7 12 10.60 4 6.40 4.20 9.60 4.20 55.20 l0 48.20 14 0 14 0 0 -47.60 c0 -54.80 0.80 -58 16 -65.80 8.80 -4.60 9.80 -4.60 88 -4.60 75.40 0 79.40 0.20 85.60 4 3.60 2.20 8.20 6.80 10.40 10.40 3.60 6.20 4 10.20 4 55.20 l0 48.40 14 0 14 0 0 -47.80 c0 -46 0.20 -47.80 4.60 -54.20 2.40 -3.60 7 -8.60 10 -10.80 5.60 -4.20 7.60 -4.20 88.20 -4.20 l82.60 0 7 5.40 c14.20 10.80 13.80 4.40 13.20 178.60 -0.60 146.80 -0.80 156.40 -4.20 162.80 -2 3.60 -24.80 29.40 -50.60 57.40 -25.80 27.80 -46.80 52 -46.80 53.80 0 2.60 7.60 3 61.20 3 58.80 0 61.40 0.20 67 4.20 10.60 7.60 11.80 12.20 11.80 49.80 l0 34 23 0 23 0 0 -28.40 c0.20 -37.40 1.60 -44.80 10.80 -53 l7.20 -6.60 88.40 0 c85.40 0 88.80 0.20 95.20 4 10.80 6.60 12.40 13.60 12.40 51 l0 33 23 0 23 0 0 -33.20 c0 -37.20 1.80 -44.20 12.80 -51 5.80 -3.40 11 -3.80 66.80 -3.80 l60.40 0 0 -4.60 c0 -2.60 -2.80 -7.20 -6.20 -10.60 -12.80 -12 -85.60 -92.60 -89.60 -99 -4.20 -6.80 -4.20 -8.60 -4.20 -166 l0 -159.20 4.40 -6.60 c2.60 -3.60 7.20 -8.60 10.20 -10.80 5.60 -4 8.20 -4.20 85.40 -4.80 76.60 -0.60 80.20 -0.40 87.80 3.40 4.20 2.20 9.60 7.20 12 10.80 4 6.40 4.20 9.60 4.20 55.20 l0 48.20 14 0 14 0 0 -47.60 c0 -54.80 0.80 -58 16 -66 8.80 -4.40 9.80 -4.40 87 -4.40 87 0 87.20 0 96.40 13.80 4.40 6.60 4.60 8.20 4.60 55.40 l0 48.80 14 0 14 0 0 -47.60 c0 -54.80 0.80 -58 16.20 -66 8.80 -4.40 9 -4.60 88.20 -4 76.60 0.60 79.60 0.80 84.80 4.80 3 2.20 7.40 6.60 9.60 9.60 4.20 5.40 4.20 7.40 4.80 165 l0.40 159.40 -4.40 8.40 c-2.60 4.60 -24.60 30.80 -49.20 58.40 l-44.60 50 4 73.60 c11.60 205 23 412.60 28.20 512.40 2.20 42.40 5.80 109 8.20 148 l4 71 13.40 12 c7.40 6.40 19.40 17.80 27 25 l13.40 13.40 0 58.40 c0 54.20 -0.20 59 -4 66.20 -2.20 4.20 -6.80 9.80 -10.40 12.40 l-6.60 4.60 -838 0.40 c-814.80 0.60 -838.20 0.40 -844 -3.20z m543 -92.60 l0 -14.40 -11.40 -11.60 -11.40 -11.60 -208.20 0 -208.20 0 -19.40 18.20 c-18.20 17 -19.40 18.60 -19.40 26 l0 7.80 239 0 239 0 0 -14.40z m122 -145 c0 -177.80 0 -177.80 14 -211.20 20 -48.20 65 -90.20 129 -120.60 31 -14.80 35.40 -15.20 57 -5.80 50.40 21.60 93.40 53.20 119.40 87.80 11.80 15.80 25.40 44.60 31 65.40 4.40 16.60 4.40 19.20 5 180.40 l0.80 163.40 18.80 0 19 0 0 -34.40 0 -34.60 16.40 -17.80 16.40 -17.60 0.60 -17.40 c1.40 -32.20 19.20 -367.40 23.60 -444.20 0.60 -10.40 1.60 -25.60 2.20 -33.40 l1.20 -14.60 -276.20 0 c-267.80 0 -276.20 0.20 -276.20 3.80 0 2 5 95.80 11 208.40 6 112.60 12 226 13.40 251.80 l2.20 47 15.80 16.20 15.60 16.40 0 35.20 0 35.20 20 0 20 0 0 -159.40z m956 151.60 c0 -7.40 -1.20 -9 -19.40 -26 l-19.60 -18.20 -208 0 -207.80 0 -12.60 12.40 -12.60 12.40 0 13.60 0 13.60 240 0 240 0 0 -7.80z m-1112 -129 c0 -1.60 -1 -18.40 -2 -37.40 -2 -35.20 -7.80 -141.40 -17 -315.80 -2.80 -52.20 -7.20 -136.40 -10 -187 -2.80 -50.60 -5.80 -111.80 -7 -136 -1.20 -24.20 -2.60 -49.60 -3.20 -56.40 l-1.20 -12.60 -153.80 0 c-84.60 0 -153.80 0.20 -153.80 0.60 0 0.20 -2.80 50 -6 110.40 -6.80 122.60 -16.40 304.20 -21 391 -1.60 31.40 -3.40 63.80 -4 72 -1.20 17.40 -9 162.80 -9 169.60 l0 4.40 194 0 c164.20 0 194 -0.40 194 -2.80z m1055.20 -3.60 c-0.60 -3.60 -1.60 -17.80 -2.20 -31.60 -1 -24.80 -2.80 -58.60 -20 -374 -5 -90.80 -11 -203.40 -13.40 -250.40 l-4.40 -85.60 -154.60 0 -154.60 0 0 9.60 c0 5.20 -2.80 59.40 -6 120.40 -3.40 61 -10 187 -15 280 -5 93 -10.80 201.60 -13 241.60 -2.20 40 -4 78 -4 84.60 l0 11.80 194 0 194.20 0 -1 -6.40z m-440.40 -560 c0.60 -2.60 2 -28 3.20 -56.60 1.20 -28.60 2.60 -56.20 3.20 -61.40 l1.20 -9.60 -26 0 -26 0 -0.80 34.80 c-0.60 31.60 -1 35.40 -4.80 40.40 -9.80 13.20 -5.20 12.60 -99.80 13 -95.60 0.60 -94.80 0.80 -103 -12.80 -3.60 -5.60 -4 -10.20 -4 -40.80 l0 -34.60 -24 0 -24 0 0 29.60 c-0.20 36.20 -1.60 43.40 -10.80 52 l-7.20 6.40 -87 0 c-96.20 0 -95.40 0.20 -103 -12.60 -3.60 -5.60 -4 -10.20 -4 -40.80 l0 -34.60 -26 0 -26 0 0 9.60 c0 5.20 1.40 32.40 3 60.40 1.60 28 3 53.40 3 56.60 l0 5.40 281 0 281 0 0.80 -4.40z m-632.80 -283 l18.20 -19.60 -97 -0.60 c-53.40 -0.20 -140.80 -0.20 -194 0 l-96.80 0.60 17.20 19.40 17.40 19.40 158.40 0.20 158.20 0 18.40 -19.40z m1056 -0.60 l18.40 -20 -194.20 0 c-106.80 0 -194.20 0.60 -194.20 1.40 0 0.80 7.80 9.60 17.60 19.80 l17.40 18.20 158.20 0.40 158.40 0.20 18.40 -20z m-980 -203 l0 -101 -20 0 -20 0 0 48.60 c0 44.40 -0.40 49 -4 54.80 -7.80 12.80 -7.80 12.80 -93.80 12.20 l-77.80 -0.60 -5.40 -5 c-10.60 -9.80 -11 -12.20 -11 -63 l0 -47 -20 0 -20 0 0 48 c0 53.40 -0.60 56.80 -12.60 64 -6 3.80 -10.60 4 -83.20 4 -103.20 0 -96.20 5 -96.20 -68.80 l0 -47.20 -19 0 -19 0 0 101 0 101 251 0 251 0 0 -101z m1053.20 97.80 c-0.60 -1.80 -1.20 -47.20 -1.20 -101 l0 -97.80 -19 0 -19 0 0 48.60 c0 44.40 -0.40 49 -4 54.80 -7.80 12.80 -7.80 12.80 -93.80 12.20 l-77.80 -0.60 -5.40 -5 c-10.20 -9.40 -11 -14 -11 -64 l0 -46 -20 0 -20 0 0 48.60 c0 44.40 -0.40 49 -4 54.80 -7.80 12.80 -7.80 12.80 -93.80 12.20 l-77.80 -0.60 -5.40 -5 c-10.60 -9.80 -11 -12.20 -11 -63 l0 -47 -20 0 -20 0 0 101 0 101 252.20 0 c229.20 0 252.20 -0.20 251 -3.20z"/>
  <path d="M420.40 1073.40 l0.60 -104.40 6.60 -13.40 c8 -16.20 20.40 -27.80 36.20 -33.60 16.20 -6.20 48.80 -5.20 63.20 2 14.40 7 27.60 21 32.80 34.60 4 11.20 4.20 14.20 4.20 115.40 l0 104 -72 0 -72.20 0 0.60 -104.60z"/>
  <path d="M1482.40 1073.40 l0.60 -104.40 6.60 -13.40 c8 -16.20 20.40 -27.80 36.20 -33.80 15.80 -5.80 48.60 -4.80 62.80 2 12.60 6.20 25.20 18.80 31.40 31.20 l5 10 0.60 106.60 0.60 106.40 -72.20 0 -72.20 0 0.60 -104.60z"/>
 </g>
 <g fill="#ffffff">
  <path d="M0 1024 l0 -1024 1024 0 1024 0 0 1024 0 1024 -1024 0 -1024 0 0 -1024z m1863.60 714.40 c3.60 -2.60 8.20 -8.20 10.40 -12.40 3.60 -7.20 4 -12 4 -60.20 l0 -52.40 -13.40 -13.40 c-7.60 -7.20 -19.60 -18.60 -27 -25 l-13.40 -12 -4 -71 c-2.40 -39 -6 -105.60 -8.20 -148 -4.40 -83.80 -8.80 -164.60 -18 -331 -3.40 -59.40 -8 -143.60 -10.40 -187.20 l-4.40 -79.20 45 -50.40 c24.60 -27.60 46.80 -54 49.40 -58.60 l4.40 -8.40 -0.40 -153.40 c-0.60 -151.60 -0.60 -153.60 -4.80 -159 -2.20 -3 -6.60 -7.40 -9.60 -9.60 -5.20 -4 -8.40 -4.20 -78.80 -4.80 -103.60 -0.80 -98.40 -4.40 -98.40 70 l0 47.60 -20 0 -20 0 0 -48.80 c0 -47.20 -0.20 -48.80 -4.60 -55.40 -9 -13.60 -10 -13.80 -90.40 -13.80 -102 0 -97 -3.80 -97 70.40 l0 47.60 -20 0 -20 0 0 -48.20 c0 -45.60 -0.20 -48.80 -4.20 -55.20 -2.40 -3.60 -7.80 -8.60 -12.20 -10.80 -7.40 -3.80 -11 -4 -81.60 -3.40 -71.20 0.60 -74 0.80 -79.40 4.80 -3 2.20 -7.60 7.20 -10.20 10.80 l-4.40 6.60 0 153.20 c0 151.40 0 153.20 4.20 160 4 6.40 76.80 87 89.60 99 5.40 5.20 6.20 7.20 6.20 16.60 l0 10.60 -60.40 0 c-55.80 0 -61 0.40 -66.80 3.80 -11 6.80 -12.80 13.80 -12.80 50.80 l0 33.20 -29 0.60 -29 0.60 0 -33.60 c0 -38 -1.60 -44.80 -12.40 -51.40 -6.40 -3.80 -9.80 -4 -89.40 -4 l-82.60 0 -7.60 7.60 c-6.80 6.80 -7.80 9 -9 21.40 -0.80 7.60 -1 24 -0.40 36.40 l1 22.40 -29 0.60 c-15.80 0.40 -29.40 0.20 -29.80 -0.20 -0.40 -0.40 -0.80 -16 -0.80 -34.60 0 -37 -1.20 -41.80 -11.80 -49.40 -5.60 -4 -8.20 -4.20 -67 -4.20 l-61.20 0 0 -9 c0 -9.20 0 -9.20 46.80 -59.80 25.80 -28 48.60 -53.80 50.60 -57.40 3.40 -6.40 3.60 -15.80 4.20 -156.80 0.60 -167.60 1 -161.80 -13.20 -172.60 l-7 -5.40 -76.60 0 c-74.40 0 -76.60 0.20 -82.20 4.20 -3 2.20 -7.60 7.20 -10 10.80 -4.40 6.40 -4.60 8.20 -4.60 54.20 l0 47.80 -20 0 -20 0 0 -48.40 c0 -45 -0.40 -49 -4 -55.20 -2.20 -3.60 -6.80 -8.20 -10.40 -10.40 -6.20 -3.80 -10.20 -4 -79.60 -4 -103.20 0 -98 -3.80 -98 70.40 l0 47.60 -20 0 -20 0 0 -48.20 c0 -45.60 -0.20 -48.80 -4.20 -55.20 -2.40 -3.60 -7.60 -8.40 -12 -10.60 -7.20 -3.80 -12 -4 -78.40 -4 -70 0 -70.80 0 -79.40 4.60 -6 3.20 -10.20 7.40 -13.40 13.40 l-4.60 8.60 0 149.20 c0 140.80 0.20 149.60 3.80 157.20 2 4.40 21.60 28.20 43.40 52.80 22 24.60 42.60 48 46 52 l6.20 7.20 -1.60 28 c-0.80 15.40 -3 55 -4.60 88 -1.80 33 -4 75.40 -5.20 94 -2 33.40 -6 104 -18 328 -3.40 61.60 -7.40 135.80 -9 165 -1.40 29.20 -3.40 66.60 -4.20 83 l-1.40 30.20 -26.40 24.20 c-20.40 18.80 -26.80 25.60 -27.80 30.60 -2 10.20 -1.40 94.40 0.80 101.80 2.20 7.80 8.20 15 17 20.40 5.80 3.60 29 3.80 838 3.20 l832 -0.40 6.60 -4.60z"/>
  <path d="M239.80 1673.60 c0 -0.40 -0.20 -6.40 -0.60 -13.20 l-0.40 -12.80 20 -18.80 19.80 -18.80 214.20 0 214.40 0 11.40 11.60 11.40 11.60 0 20.40 0 20.40 -245 0 c-134.80 0 -245 -0.20 -245.20 -0.40z"/>
  <path d="M800 1638.80 l0 -35.20 -15.60 -16.40 -15.80 -16.20 -2.20 -46 c-4 -81.40 -24.20 -459.80 -25 -468.40 l-1 -8.60 282.80 0 282.80 0 0 7.60 c0 4.40 -0.80 21.60 -2 38.60 -3.20 49.20 -22.40 409.40 -24.60 458 l-0.60 17.40 -16.40 17.60 -16.40 17.80 0 34.60 0 34.60 -25 -0.60 -25 -0.60 -0.60 -163 c-0.60 -160.80 -0.60 -163.20 -5 -179.80 -5.60 -20.80 -19.20 -49.60 -31 -65.40 -26 -34.40 -69.20 -66.40 -119 -87.60 l-16.60 -7.20 -12.40 5.20 c-71.80 30.20 -123.60 76 -145.40 128.20 -14 33.40 -14 33.40 -14 211.20 l0 159.40 -26 0 -26 0 0 -35.20z"/>
  <path d="M1316 1654.40 l0 -19.60 12.60 -12.40 12.60 -12.40 213.80 0 214 0 19.60 18.20 19.40 18.20 0 13.80 0 13.80 -246 0 -246 0 0 -19.60z"/>
  <path d="M295.80 1539.20 c-0.40 -0.60 0.20 -21 1.60 -45.60 1.40 -24.60 3.80 -70.20 5.60 -101.60 3.60 -66.80 9 -165.80 16 -297 2.60 -51.60 7.60 -143.40 11 -204 3.20 -60.40 6 -110.20 6 -110.40 0 -0.40 72 -0.60 159.80 -0.60 l159.80 0 1.20 12.60 c0.60 6.80 2 32.20 3.20 56.40 1.20 24.20 4.20 85.40 7 136 2.80 50.60 7.20 134.80 10 187 9.20 174.40 15 280.60 17 315.80 1 19 2 38.60 2 43.40 l0 8.80 -199.60 0 c-109.80 0 -200.20 -0.40 -200.60 -0.80z m262.20 -465.20 c0 -95.20 -0.20 -98.20 -4.20 -109.40 -8.80 -23.20 -31.40 -39 -57.80 -40.20 -28 -1.40 -49.80 11.80 -62.40 37.20 l-6.60 13.40 -0.60 98.40 -0.60 98.60 66 0 66.20 0 0 -98z"/>
  <path d="M1351 1524.60 c0.60 -8.60 2.80 -49.40 5 -90.60 7.80 -145 22 -414.20 28 -524 3.20 -61 6 -115.20 6 -120.40 l0 -9.60 160.60 0 160.60 0 4.40 85.60 c2.40 47 7.20 134 10.40 193.40 3.20 59.40 8.20 150.80 11 203 2.80 52.20 7.40 136 10 186 2.80 50 5 91.20 5 91.60 0 0.20 -90.40 0.40 -201 0.40 l-201 0 1 -15.40z m268.60 -453 l-0.60 -100.60 -5 -10 c-10.80 -21.80 -31 -35 -56 -36.60 -27.80 -1.60 -49.80 11.60 -62.40 37.20 l-6.60 13.40 -0.60 98.40 -0.60 98.60 66.20 0 66.20 0 -0.60 -100.40z"/>
  <path d="M736 974 c0 -5.60 -5.80 -115 -6.80 -128.40 l-0.80 -11.60 32.80 0 32.80 0 0 34 c0 38 1.20 43.20 12.60 50 6 3.80 10.60 4 88 4 l81.40 0 7.20 -6.40 c9.20 -8.60 10.60 -15.80 10.80 -52 l0 -29.60 30 0 30 0 0 34.60 c0 30.60 0.40 35.20 4 40.80 8 13.20 8 13.20 97 12.80 88 -0.40 84 0.20 93.80 -13 3.80 -5 4.20 -8.80 4.80 -40.40 l0.80 -34.80 32 0 32.20 0 -1.20 17.60 c-0.80 9.60 -2.20 40 -3.40 67.40 -1.20 27.60 -2.60 52 -3.20 54.60 l-0.80 4.40 -287 0 c-284.20 0 -287 0 -287 -4z"/>
  <path d="M308.20 684.80 c-12.40 -13.80 -22.20 -25.40 -21.80 -26 0.60 -0.40 95.60 -0.60 211.20 -0.40 l210.20 0.60 -24.40 25.60 -24.40 25.60 -164 -0.20 -164 -0.20 -22.80 -25z"/>
  <path d="M1363.40 684.40 l-23.60 -25.40 210.40 -0.60 c115.80 -0.20 210.80 0 211.40 0.60 0.40 0.40 -9.80 12.20 -22.80 26 l-23.60 25 -164 -0.20 -164.20 -0.20 -23.60 -25.20z"/>
  <path d="M240 481 l0 -107 25 0 25 0 0 47.20 c0 52.60 1 57.40 13 64.80 6.20 3.80 9.80 4 77.20 4 96.40 0 89.80 5 89.80 -68 l0 -48 26 0 26 0 0 47 c0 50.80 0.40 53.20 11 63 l5.40 5 71.80 0.60 c79.40 0.60 80.20 0.60 87.80 -12.20 3.60 -5.80 4 -10.40 4 -54.80 l0 -48.60 26 0 26 0 0 107 0 107 -257 0 -257 0 0 -107z"/>
  <path d="M1292 481 l0 -107 26 0 26 0 0 47 c0 50.80 0.40 53.20 11 63 l5.40 5 71.80 0.60 c79.40 0.60 80.20 0.60 87.80 -12.20 3.60 -5.80 4 -10.40 4 -54.80 l0 -48.40 24.60 -0.60 c13.40 -0.40 25 -0.40 26 0 0.80 0.40 1.40 21.40 1.40 46.60 0 49.80 0.80 54.40 11 63.80 l5.40 5 71.80 0.60 c79.40 0.60 80.20 0.60 87.80 -12.20 3.60 -5.80 4 -10.40 4 -54.80 l0 -48.40 23.60 -0.60 c12.80 -0.40 24.40 -0.40 25.40 0 1.40 0.20 2 37.80 2 107.40 l0 107 -257.40 0 -257.60 0 0 -107z"/>
 </g>
</svg>